# xmcd
#
# Track frame offsets: 
#        150
#        20803
#        33958
#        56220
#        74872
#        90750
#        106480
#        125230
#        142818
#        160711
#        174203
#        187723
#
# Disc length: 2830 seconds
#
# Revision: 0
# Processed by: cddbd v1.5.2PL0 Copyright (c) Steve Scherf et al.
# Submitted via: ExactAudioCopy v0.99pb5
#
DISCID=9d0b0c0c
DTITLE=Bruce Willis and Robben Ford - If It Don't Kill You, It Just Make
DTITLE=s You Stronger
DYEAR=1989
DGENRE=Blues
TTITLE0=Pep Talk
TTITLE1=Soul Shake
TTITLE2=Here Comes Trouble Again
TTITLE3=Tenth Avenue Tango
TTITLE4=I'll Go Crazy
TTITLE5=Crazy Mixed-Up World
TTITLE6=Turn It Up (A Little Louder)
TTITLE7=Save The Last Dance For Me
TTITLE8=Can't Leave Her Alone
TTITLE9=Barnyard Boogie
TTITLE10=Love Makes The World Go Round
TTITLE11=Blues For Mister D
EXTD=
EXTT0=
EXTT1=
EXTT2=
EXTT3=
EXTT4=
EXTT5=
EXTT6=
EXTT7=
EXTT8=
EXTT9=
EXTT10=
EXTT11=
PLAYORDER=
